<svg xmlns="http://www.w3.org/2000/svg" version="1.1" viewBox="-5.0 -10.0 110.0 135.0">
 <g>
  <path d="m56.977 82.332c-2.9688-2.7578-3.4102-5.1992-3.4922-6.2852-0.375-4.8203 4.2031-9.0938 8.3125-12.922 0.39062-0.36328 1.4375-1.1641 2.8633-2.4453 1.7344-1.5586 3.3945-3.2852 4.2852-4.2109 5.5977-5.2734 8.1992-12.73 6.0312-19.43l0.003907-0.003906c-1.3672-3.9805-4.1133-7.3438-7.7383-9.4805-0.38672-0.23828-0.61328-0.66797-0.58984-1.1211 0.023437-0.45312 0.29297-0.85547 0.70312-1.0508l0.027343-0.011718 0.015626-0.007813h-0.003907c0.91797-0.42188 1.9141-0.64453 2.9219-0.65234h2.2578c0.23438-0.007813 0.46094 0.097656 0.60938 0.28125 0.1875 0.26953 0.17188 0.63281-0.03125 0.88672 0.30078-0.089844 0.55859-0.28906 0.72266-0.55859 0.18359-0.3125 0.23438-0.6875 0.13281-1.0391 0.33984 0.011719 0.65625 0.16797 0.875 0.42969 0.26563 0.35156 0.30859 0.82422 0.11328 1.2188 1.1055-1.4766 1.0234-3.5273-0.19531-4.9102-0.45703 0.8125-1.2148 1.418-2.1133 1.6797-0.63672 0.17188-1.3125 0.15625-1.9414-0.046875 0.17188-0.24219 0.24609-0.54688 0.19531-0.84375-0.046875-0.25-0.17969-0.47656-0.37891-0.64062-0.81641 0.9375-1.9141 1.5859-3.1328 1.8438-0.80078 0.16406-1.6328 0.14844-2.4297-0.042969 1.7734-1.8359 2.8906-2.6133 3.3555-2.3281 0.20312 0.125 0.28125 0.45312 0.23047 0.98828 2.6289-2.332 5-3.3711 5.9648-2.6211 0.36719 0.34375 0.55469 0.83594 0.51172 1.3359 0.89844-0.25391 1.6289-0.91016 1.9766-1.7812 0.1875-0.56641 0.1875-1.1797 0-1.7461 0.34766-1.1328 1.0391-2.1289 1.9766-2.8516-1.3203-0.30078-2.7109 0.039062-3.7383 0.92188l-4.7305 0.050781c-0.15234-0.33594-0.41406-0.60547-0.74219-0.77344-0.58984-0.17969-1.2227-0.13281-1.7812 0.12891-0.80078 0.23828-0.79297 0.47656-1.5 0.55859v0.003907c-0.94922 0.078125-1.9023 0.082031-2.8516 0.015625-0.25781-0.55078-0.62891-1.0391-1.0859-1.4375-0.57031-0.44922-1.2266-0.76953-1.9297-0.94141-2.3984-0.93359-3.0742-3.1094-4.0703-4 0.42578 0.64844 0.53516 1.457 0.29687 2.1914-0.16797 0.44141-0.46484 0.82031-0.84766 1.0898 0.60156 0.23047 1.0117 0.79687 1.0508 1.4414 0.035156 0.64453-0.3125 1.2539-0.88672 1.5508 0.77734-0.050781 1.5117 0.36719 1.8711 1.0625 0.082032 0.32812 0.058594 0.67969-0.066406 0.99609-0.20312 0.75391-0.70312 1.3984-1.3828 1.7812-0.67969 0.32812-0.98047 0.035156-1.6797 0.28516l-0.003906-0.003906c-0.69141 0.29688-1.2461 0.83594-1.5547 1.5195 0.53125-0.33594 1.1953-0.39062 1.7773-0.14453 0.42188 0.28516 0.71094 0.73047 0.79297 1.2344 0.26562 0.87891 0.11328 1.832-0.42188 2.582-0.35938 0.45703-0.60156 0.39844-0.9375 0.86719-0.34375 0.51563-0.5 1.1328-0.44531 1.75 0.17578-0.46875 0.61328-0.78125 1.1133-0.80469 0.45312 0.035156 0.73828 0.47266 0.88281 0.69922 0.29297 0.44922 0.20703 0.69922 0.44531 1.4102 0.24219 0.73047 0.43359 0.76953 0.57422 1.2344 0.23828 0.79297-0.17578 1.2344-0.28906 2.1133-0.089844 0.83594 0.0625 1.6758 0.4375 2.4258-0.097656-0.56641 0.085938-1.1445 0.49219-1.5469 0.39062-0.35547 0.9375-0.46875 1.4336-0.29687 0.19531 0.09375 0.35547 0.24219 0.46484 0.42969 0.66016 0.98438 1.4844 1.8555 2.4375 2.5703 0.65625 0.55859 0.94922 0.85547 1.0859 2.7344-2.4141 0.42969-4.9023-0.085937-6.9453-1.4375-0.47656-0.35156-1.6602-1.3164-3.4922-5.3789-2.1562-4.7773-1.7344-6.1328-2.8633-7.8945-2.2656-3.5273-7.9219-2.5195-12.715-4.0508-6.4258-2.0508-19.352-5.2383-28.5 1.2578 7.1133-0.67969 12.883 4.2695 14.672 10.617h-0.003906c1.4375 5.5547-0.59375 11.43-5.1523 14.914 2.8359-1.4531 6.0586-1.9883 9.2109-1.5273 3.1562 0.45703 6.0898 1.8906 8.3906 4.0938 5.6289 5.6289 3.9414 13.59 3.8242 14.094h0.003906c1.1211-3.0352 3.3203-5.5547 6.1797-7.0742 3.3047-1.7109 7.3555-1.1484 8.5391-0.99609-1.0625 0.84766-9.2734 7.6016-9.0625 18.496 0.13672 4.7227 1.75 9.2852 4.6094 13.047 1.4961-0.23438 2.9453-0.69922 4.2969-1.375 1.0117-0.57812 1.9375-1.293 2.7578-2.1172z"/>
  <path d="m27.918 79.797c-0.54297-5.0273 1.6445-9.9648 5.7383-12.938-0.085938 1.4688-0.003906 2.9453 0.23438 4.3984 0.41016 2.4414 1.2617 4.7852 2.5156 6.918-1.0508-1.0352-2.5195-1.5273-3.9805-1.3359 0.58594 1.1992 1.3164 2.3242 2.1719 3.3516 3.4375 4.1094 9.8086 7.6133 16.336 6.1914 1.3125-0.28516 5.7227-1.4414 8.207-5.2031 1.0352-1.5703 0.98047-2.4453 1.6758-4.418 0.56641-1.6094 3.7031-9.8359 10.27-11.473 3.3047-0.82422 7.6797-0.023437 10.27 2.7773 4.3867 4.7461 2.1445 13.672-2.3047 18.441-4.8242 5.1758-13.23 6.5195-20.902 3.1719v-0.003907c2.6758-0.95312 4.875-2.9102 6.1289-5.457 3.3359 0.29688 6.6562-0.71875 9.2578-2.832 0.75781-0.66797 4.1758-3.6875 3.1797-6.5664-0.72656-2.0938-3.5898-3.5352-5.3438-2.8281h-0.003906c-1.0039 0.41016-1.8398 1.1484-2.375 2.0977 0 0-1.6484 2.8828-5.6914 10.27-3.1055 5.6719-11.539 5.7344-12.75 5.7969-7.8359 0.41016-15.629-4.7734-19.84-13.027l0.003906-0.003906c-1.2266 0.52344-2.2188 1.4727-2.7969 2.6719z"/>
 </g>
<text x="0.0" y="117.5" font-size="5.0" font-weight="bold" font-family="Arbeit Regular, Helvetica, Arial-Unicode, Arial, Sans-serif" fill="#000000">Created by Leonardo Henrique Martini</text><text x="0.0" y="122.5" font-size="5.0" font-weight="bold" font-family="Arbeit Regular, Helvetica, Arial-Unicode, Arial, Sans-serif" fill="#000000">from Noun Project</text></svg>