<svg xmlns="http://www.w3.org/2000/svg" data-name="Layer 1" viewBox="0 0 400 500" x="0px" y="0px"><title>hand of the king</title><path d="M223,72.32v2.25a5.89,5.89,0,0,1,1.57-.92C224,73.2,223.51,72.75,223,72.32Z"/><path d="M245.91,110.55a53.1,53.1,0,0,1-11,32.38v3.19a55.29,55.29,0,1,0-72.25,11l-.12-2.48a53.36,53.36,0,1,1,83.1-49.31C245.82,107.1,245.91,108.83,245.91,110.55Z"/><path d="M186.78,99.55a5.36,5.36,0,1,0,5.36-5.36A5.41,5.41,0,0,0,186.78,99.55Zm9,0c0,4.69-7.28,4.69-7.28,0S195.78,94.86,195.78,99.55Z"/><path d="M208,82.89h14c-1.59-2-1.33-4.46-1.33-6.83V70.64a49.18,49.18,0,0,0-5.36-3.31v9.38c0,.81.16,1.87-.83,2.17a15.64,15.64,0,0,1-3.43.15c-1.51.09-3,.23-4.51.43a33.56,33.56,0,0,0-8.89,2.14,9,9,0,0,0-3.07,2,3.87,3.87,0,0,0-.78,1.17c-.21.52-.12,1.13-.33,1.62a1.13,1.13,0,0,1-2,.13c-.29-.49-.17-1.2-.39-1.75a5.26,5.26,0,0,0-2.19-2.29,23.45,23.45,0,0,0-8.26-2.64,60.51,60.51,0,0,0-8.6-.85c-1.19,0-2.39.07-2.45-1.44,0-1.13,0-2.26,0-3.39V67.36a47.81,47.81,0,0,0-5.24,3.22V75.9c0,2.41.29,5-1.32,7h9.21c3.83,0,7.52-.33,10.85,2a21,21,0,0,1,6.21,7.6,7.6,7.6,0,0,1,6.29.31C197.89,88.36,201.93,82.89,208,82.89Z"/><path d="M192.77,212.66l.23,18.69c.18,15.49.17,31,.24,46.48.06,17.26,0,34.52-.18,51.77-.06,7.54-.17,15.07-.26,22.6q-.17,14.6-.5,29.17c0,2.17-.1,4.33-.16,6.5-.32-10.91-.5-21.82-.63-32.74q-.12-9.63-.23-19.25c-.2-17.33-.26-34.67-.27-52s.07-34.51.26-51.76q.1-9.5.23-19v-.67a10.18,10.18,0,0,1-5.76-3.55c0,1.42,0,2.84,0,4.25,0,.9-.22,1.76-.2,2.65s0,1.95.07,2.93c0,1.9.08,3.79.13,5.69q.25,11.31.54,22.61.57,22.47,1.25,44.93.61,20.46,1.39,40.91c.42,10.94.88,21.88,1.48,32.81.39,6.92.74,13.86,1.53,20.74.06.5.12,1,.19,1.49,2.53-18,5.94-101,8.51-178.08A10.15,10.15,0,0,1,192.77,212.66Z"/><path d="M217.85,85.14a129.18,129.18,0,0,1,1.08,20.24c0,1.81-.38,4,.65,5.58s2.15,2.79,3.06,4.31a19.74,19.74,0,0,1,2.13,4.87,39.43,39.43,0,0,0-3.4-4.51c-1.11-1.28-2.53-2.43-3.51-3.8-1.32-1.84-1.11-4.1-1.14-6.24a130.64,130.64,0,0,1,1.08-20.45c-3.1,0-6.2,0-9.3,0-5.39,0-8.81,4.58-11,9,4.91,4.85,1,13.43-5.82,13s-9.61-9.25-4.3-13.53c-2.18-4.17-5.53-8.46-10.65-8.48-3.37,0-6.73,0-10.1,0H163a38.9,38.9,0,0,0-7.93,18.66,61.43,61.43,0,0,0-.37,8.47v29.24a49.25,49.25,0,0,0,7.53,7.4c-.05-1-.65-4.34,1.38-3.61.66.24.72.8.76,1.37.1,1.27.13,2.54.19,3.81l.82,16.28,2,39.31.27,5.4A20.3,20.3,0,0,0,168,215a7.87,7.87,0,0,0,15.39-.22,17,17,0,0,0,.16-3.42v-62c-2-.27-6-2.1-4.93-4.83.92,2.23,4,2.65,6.05,2.66s5.14-.43,6-2.66c1,2.73-2.89,4.55-4.92,4.82v51.08c0,.73,0,1.47,0,2.2a7.87,7.87,0,0,0,15.45,2.16,11.76,11.76,0,0,0,.3-3.34V173.64c0-8.28-.15-16.58,0-24.86,0-.21,0-.41,0-.62-2-.26-6-2.09-5-4.82.92,2.22,4,2.64,6.06,2.65s5.14-.43,6.05-2.65c1,2.73-2.91,4.56-5,4.82.2,2,0,4.07,0,6.06v40.93c0,.6,0,1.2,0,1.8A7.34,7.34,0,0,0,218.12,199c.61-2.06.3-4.53.3-6.65V146.87c-2-.26-5.95-2.09-4.92-4.82.92,2.23,3.95,2.65,6.05,2.65s5.14-.42,6-2.65c1,2.73-2.89,4.55-4.92,4.82v31c0,3.87-.09,7.76,0,11.64a6.06,6.06,0,0,0,8.85,5.31c2.64-1.44,3.15-4,3.15-6.74V114c0-1.67,0-3.34,0-5a38.72,38.72,0,0,0-8.3-23.81Zm-50.91,19.8a65.84,65.84,0,0,1-1.38,12.82c-.82,3.89-2,7.61-4.62,10.67,2.19-4.68,2.51-10.36,3.17-15.42.71-5.42,1.31-10.88,2.41-16.24A52,52,0,0,1,166.94,104.94Zm10.65,15.47a7.16,7.16,0,0,1-3.83,4.5,7.12,7.12,0,0,1,4.11-6.62A6,6,0,0,1,177.59,120.41Zm.73-16.83c-.39-2.65-.89-5.27-1.13-8.16,3.57,4,4.94,11.55,2,16.25C178.94,109,178.73,106.27,178.32,103.58Zm10.15,12a32,32,0,0,1-9.25,9.36,34.66,34.66,0,0,1,11.45-13.24A22.25,22.25,0,0,1,188.47,115.55Zm21.66-19.28c-.42,5-3.13,10.18-8,12a34.83,34.83,0,0,0,4.81-8,81.16,81.16,0,0,0,2.81-9A13.19,13.19,0,0,1,210.13,96.27Z"/><path d="M226.68,82.89a3.69,3.69,0,0,0,3.65-3.27,48.93,48.93,0,0,0-3.78-4.12C221.86,75.66,222,82.89,226.68,82.89Zm0-6c3,0,3,4.6,0,4.6S223.71,76.89,226.68,76.89Z"/><path d="M156.33,180.1a38.54,38.54,0,0,1-1,5.55,7.39,7.39,0,0,0,.14,4.34,8.29,8.29,0,0,0,9.08,5.5L164,183.6A77.18,77.18,0,0,1,156.33,180.1Z"/><path d="M155.58,167.17c1,.13,2.53-1,3.39-1.39,1.23-.56,2.85-1.32,4.12-.48l-.27-5.38a57.64,57.64,0,1,1,76.85-16.3,59.57,59.57,0,0,1-4.74,5.89v10.06c.81.23,2.57,1.06,3.39.68.39-.85-.34-2.7-.5-3.57-.24-1.27-.59-3,.39-4.06s2.72-.85,4-.72c.89.09,2.86.67,3.66.14.24-.91-.8-2.65-1.1-3.49-.47-1.28-1.11-3-.1-4.24.87-1,2.49-1.08,3.72-1.15.88-.06,2.9.19,3.59-.46.09-.95-1.22-2.47-1.67-3.26-.69-1.23-1.64-2.92-.71-4.28.76-1.11,2.35-1.4,3.57-1.68.83-.19,2.74-.28,3.29-1-.07-.95-1.61-2.22-2.18-2.93-.88-1.1-2.1-2.61-1.41-4.1.56-1.22,2.08-1.78,3.24-2.25.78-.32,2.66-.73,3.08-1.55-.23-.92-2-1.92-2.63-2.52-1-.89-2.36-2.07-2.13-3.57s1.61-2.21,2.68-2.88c.83-.52,2.52-1.18,3-2.11-.45-.94-2.14-1.59-3-2.11-1.07-.67-2.48-1.52-2.68-2.88s1.13-2.68,2.13-3.57c.67-.59,2.46-1.66,2.61-2.62-.45-.72-2.15-1.08-2.9-1.38-1.2-.49-2.82-1-3.4-2.31-.66-1.43.44-2.88,1.29-4,.58-.73,2.28-2.17,2.27-3.18-.56-.63-2.29-.7-3.08-.88-1.27-.28-3-.56-3.75-1.72s0-2.91.62-4.1c.45-.82,1.89-2.52,1.72-3.51-.73-.58-2.67-.33-3.55-.38-1.23-.08-2.84-.14-3.72-1.16-1-1.19-.37-3,.1-4.24.3-.84,1.37-2.65,1.05-3.56-.82-.46-2.73.13-3.61.21-1.29.14-3,.35-4-.72s-.63-2.78-.39-4.06c.16-.87.91-2.8.44-3.63-.89-.32-2.71.58-3.57.81-1.32.36-3.12.85-4.23-.25-1-1-.87-2.57-.85-3.81,0-.88.44-2.87-.16-3.61-1-.12-2.54,1-3.38,1.39-1.24.57-2.94,1.35-4.22.44-1.09-.78-1.28-2.38-1.46-3.6-.13-.88,0-2.92-.76-3.54-.95,0-2.35,1.42-3.1,1.92-1.13.77-2.68,1.83-4.09,1.14-1.21-.59-1.66-2.14-2-3.31-.27-.84-.53-2.87-1.34-3.37-.94.15-2.08,1.79-2.73,2.41-1,1-2.43,2.32-4,1.75-1.26-.45-1.94-1.93-2.51-3-.38-.76-.95-2.61-1.79-2.95-.9.31-1.73,2.06-2.27,2.78C195,47,194,48.45,192.52,48.45S190,47,189.24,46c-.53-.71-1.43-2.54-2.35-2.77-.76.38-1.26,2-1.63,2.78-.58,1.15-1.27,2.72-2.59,3.19s-2.83-.68-3.82-1.61c-.68-.64-2-2.45-3-2.53-.68.51-.89,2.23-1.13,3-.39,1.24-.81,2.9-2,3.59-1.37.77-2.9-.2-4-1-.82-.55-2.3-2-3.35-2-.59.62-.51,2.34-.62,3.15-.18,1.28-.32,3-1.41,3.88s-2.89.28-4.14-.28c-.87-.39-2.63-1.65-3.64-1.42-.52.77-.1,2.68-.09,3.56,0,1.24.1,2.85-.84,3.8-1.11,1.12-2.92.62-4.23.26-.88-.24-2.75-1.15-3.64-.75-.39.85.35,2.7.51,3.57.24,1.27.59,3-.4,4.06s-2.71.85-4,.72c-.88-.09-2.86-.67-3.66-.14-.24.91.81,2.65,1.11,3.49.46,1.28,1.11,3,.09,4.24-.87,1-2.48,1.08-3.72,1.15-.88.06-2.9-.19-3.58.47-.09.94,1.22,2.46,1.66,3.25.69,1.23,1.64,2.92.72,4.28-.76,1.11-2.36,1.4-3.58,1.68-.82.19-2.74.28-3.29,1,.08.95,1.61,2.23,2.18,2.93.89,1.1,2.11,2.61,1.42,4.1-.56,1.23-2.09,1.78-3.24,2.25-.79.32-2.67.73-3.08,1.55.23.92,2,1.92,2.63,2.52,1,.91,2.44,2.16,2.11,3.71s-1.87,2.25-3,2.94c-.69.42-2.4,1.12-2.66,1.95.31.8,2,1.45,2.66,1.87,1.12.69,2.68,1.54,3,2.94.33,1.55-1.09,2.8-2.11,3.71-.67.59-2.46,1.66-2.62,2.62.45.72,2.15,1.08,2.9,1.38,1.2.49,2.82,1,3.41,2.32.66,1.43-.44,2.87-1.29,3.94-.58.73-2.28,2.17-2.28,3.18.57.63,2.3.7,3.09.88,1.26.28,3,.56,3.75,1.72s0,2.91-.62,4.1c-.45.82-1.9,2.52-1.72,3.52.72.57,2.67.32,3.54.37,1.24.08,2.85.14,3.72,1.16,1,1.19.37,2.95-.09,4.24-.31.84-1.38,2.65-1,3.56.81.46,2.72-.12,3.6-.21,1.29-.14,3-.35,4,.72s.63,2.78.4,4.06c-.17.87-.91,2.8-.44,3.63.87.34,2.72-.58,3.56-.81,1.32-.35,3.13-.85,4.23.25s.88,2.57.85,3.81C155.4,164.44,155,166.43,155.58,167.17Z"/><path d="M162.14,72.26c-.56.44-1.09.91-1.63,1.37a5.84,5.84,0,0,1,1.63.93Z"/><path d="M192.51,36.64a73.91,73.91,0,0,0-37.28,10.11,74.74,74.74,0,0,0-26.45,26.4,73.76,73.76,0,0,0,1,76.42,74.65,74.65,0,0,0,29.36,26.88c1.52.78,3.06,1.49,4.63,2.16l-.25-4.9a9.05,9.05,0,0,1-1-3.87c-.09-.69-.07-2.18-.63-2.68-1-.19-2.62,1-3.45,1.38-1.32.6-3.16,1.43-4.41.23-1-1-.9-2.59-.87-3.85,0-.89.43-2.84-.17-3.59-.86-.36-2.72.55-3.57.78-1.34.36-3.17.88-4.27-.28s-.65-2.79-.41-4.09c.17-.88.91-2.77.44-3.61-.79-.5-2.73.09-3.6.18-1.31.13-3.06.35-4.05-.75s-.4-3,.08-4.28c.3-.85,1.37-2.63,1-3.54-.7-.61-2.67-.36-3.54-.41-1.25-.08-2.9-.13-3.76-1.2-1.09-1.33-.11-3.1.6-4.36.44-.8,1.81-2.41,1.63-3.38-.63-.77-2.84-.84-3.75-1.06-1.17-.29-2.66-.66-3.24-1.84-.73-1.47.5-3,1.37-4.09.56-.7,2.2-2.09,2.18-3.06-.24-.42-1-.64-1.46-.82-.68-.3-1.38-.55-2.06-.85-1.15-.49-2.62-1.14-2.93-2.49-.36-1.54,1.07-2.78,2.1-3.7.68-.6,2.48-1.66,2.62-2.63-.17-.43-.94-.81-1.3-1-.65-.42-1.31-.79-2-1.21-1.07-.69-2.44-1.62-2.44-3s1.37-2.35,2.44-3c.8-.52,2.92-1.33,3.25-2.31-.16-.92-2-2-2.62-2.57-1-.92-2.46-2.16-2.1-3.7.31-1.35,1.78-2,2.93-2.49.89-.38,3-.81,3.53-1.72,0-1-1.64-2.33-2.19-3-.87-1.09-2.1-2.62-1.37-4.09.58-1.18,2.08-1.56,3.24-1.84.93-.23,3.16-.3,3.78-1.12.14-.93-1.23-2.55-1.66-3.32-.71-1.26-1.69-3-.6-4.37.87-1.06,2.51-1.11,3.77-1.19.89-.06,2.86.2,3.56-.46.29-.89-.77-2.67-1.07-3.49-.47-1.31-1.14-3.09-.07-4.28s2.73-.88,4-.75c.89.09,2.84.68,3.64.14.42-.83-.32-2.71-.48-3.57-.24-1.3-.6-3,.41-4.09s2.94-.65,4.28-.28c.87.23,2.73,1.15,3.61.74.55-.74.14-2.68.12-3.55,0-1.26-.11-2.9.88-3.85,1.24-1.2,3.08-.37,4.4.23.83.38,2.55,1.62,3.5,1.36.66-.65.57-2.63.7-3.49.18-1.25.37-2.88,1.5-3.66,1.42-1,3.1.15,4.3,1,.84.57,2.16,1.92,3.23,1.92.82-.57,1.07-2.76,1.37-3.65.38-1.14.88-2.61,2.1-3.09,1.53-.6,2.95.75,4,1.71.65.62,1.9,2.37,2.87,2.43.44-.21.72-1,.94-1.38.35-.66.67-1.33,1-2,.58-1.1,1.35-2.52,2.72-2.72,1.57-.23,2.68,1.3,3.51,2.4.54.72,1.46,2.61,2.41,2.82.91-.23,1.84-2.12,2.36-2.82.83-1.1,1.95-2.62,3.51-2.4,1.38.2,2.14,1.62,2.73,2.72.45.85,1.06,3,2,3.38.94-.09,2.18-1.83,2.82-2.44,1-1,2.42-2.3,3.95-1.71,1.23.48,1.72,2,2.1,3.09.31.9.57,3.12,1.43,3.67,1,0,2.43-1.43,3.18-1.94,1.2-.81,2.88-1.93,4.3-1,1.13.78,1.32,2.41,1.5,3.66.13.88,0,2.87.75,3.51.46.11,1.2-.33,1.61-.51.75-.33,1.47-.72,2.22-1,1.28-.55,3-1.17,4.11,0,.9,1,.82,2.55.79,3.76,0,.88-.43,2.85.16,3.59.85.37,2.73-.55,3.57-.78,1.34-.36,3.17-.88,4.27.28s.66,2.79.41,4.09c-.16.88-.9,2.77-.43,3.61.78.5,2.73-.09,3.59-.18,1.32-.13,3.07-.35,4.05.75s.4,3-.07,4.28c-.31.85-1.37,2.63-1,3.54.69.61,2.66.36,3.53.41,1.26.08,2.9.13,3.77,1.2,1.08,1.33.11,3.1-.6,4.36-.45.8-1.82,2.41-1.64,3.38.63.77,2.84.84,3.75,1.06,1.17.29,2.67.66,3.25,1.84.73,1.47-.5,3-1.38,4.09-.56.7-2.2,2.09-2.17,3.06.24.42,1,.64,1.45.82.68.3,1.38.56,2.07.85,1.14.49,2.62,1.14,2.93,2.49.35,1.55-1.07,2.78-2.11,3.7-.67.59-2.48,1.66-2.61,2.63.16.43.94.81,1.3,1,.64.42,1.31.8,2,1.21,1.06.69,2.44,1.62,2.44,3s-1.38,2.35-2.44,3c-.81.52-2.93,1.34-3.26,2.31.17.92,2,2,2.62,2.57,1,.92,2.46,2.16,2.11,3.71-.31,1.35-1.78,2-2.93,2.48-.89.38-3.06.82-3.54,1.73,0,.94,1.64,2.32,2.19,3,.87,1.08,2.1,2.61,1.38,4.08-.58,1.18-2.08,1.56-3.25,1.84-.93.23-3.15.31-3.77,1.12-.15.93,1.23,2.55,1.66,3.32.7,1.27,1.68,3,.6,4.37-.87,1.06-2.51,1.11-3.77,1.19-.89.06-2.87-.2-3.57.46-.28.89.78,2.67,1.08,3.49.47,1.31,1.13,3.09.07,4.28s-2.73.88-4.05.75c-.89-.09-2.83-.68-3.63-.14-.33.63.15,2,.28,2.6a12.3,12.3,0,0,1,.42,3.52c-.32,3-3.6,2.2-5.62,1.62v9.14a73.83,73.83,0,0,0,31.18-67.42,73.65,73.65,0,0,0-11.34-32.88,74.55,74.55,0,0,0-24.34-23.62,73.69,73.69,0,0,0-33.34-10.35C195.57,36.69,194,36.64,192.51,36.64Z"/><path d="M162.14,79.19a3.7,3.7,0,0,0-3.65-3.7,47.09,47.09,0,0,0-3.71,4C155.2,84.08,162.14,83.74,162.14,79.19Zm-3.7,2.3c-3,0-3-4.6,0-4.6S161.41,81.49,158.44,81.49Z"/><path d="M192.49,82.6c3.85-5.1,16.46-5.82,20.62-5.91V66.22a49.1,49.1,0,0,0-41.23,0V76.69C176,76.78,188.64,77.5,192.49,82.6Z"/><text x="0" y="415" fill="#000000" font-size="5px" font-weight="bold" font-family="'Helvetica Neue', Helvetica, Arial-Unicode, Arial, Sans-serif">Created by Luis Herrera</text><text x="0" y="420" fill="#000000" font-size="5px" font-weight="bold" font-family="'Helvetica Neue', Helvetica, Arial-Unicode, Arial, Sans-serif">from the Noun Project</text></svg>