<svg xmlns="http://www.w3.org/2000/svg" version="1.1" viewBox="-5.0 -10.0 110.0 135.0">
 <path d="m86.625 52.402c-1.9219-1.9062-4.5938-4.4531-6.875-6.0312 0.25-1.1094 0.5625-3.6094-0.75-6.1094-1.2031-2.2812-3.4219-3.9531-6.625-4.9688-0.4375-1.75-1.1719-3.2969-2.2656-4.6562 0 0-1.875-5.8438-6-10.625-3.9844-4.5938-4.1875-14.547-4.1875-14.656 0.035156-0.72656-1.0391-1.0586-1.4219-0.42188-5.6875 8.5312-2.3438 15.531 0.21875 19-7.1016-1.9023-14.223-10.164-17.695-14.727-0.3125-0.41016-0.95313-0.12891-0.88672 0.38281 1.0664 7.832 5.5742 16.102 12.719 19.648 5.7969 2.875 7.3555 9.3359 3.5352 13.664 0.83203 1.0234 2.7188 2.0781 2 3.5469-0.40625 1.25-3.2812 11.484 11.438 22.5 0.46875 0.34375 0.95312 0.6875 1.4531 1.0469 1.7344-1.0664 2.6133-3.2148 3.0781-4.9844 0.14453-0.57422-0.45312-1.1328-1.0156-0.92188-0.03125 0.015625-2.6094 0.85938-4.0312-0.45312-3.1094-2.875-5.4219-5.4531-4.7812-10.297 0.30859-2.2812 1.793-2.957 4.0469-2.4844 2.9219 0.65625 6.7031 2.1719 8.125 5.6719 0.03125 0.59375 0.046875 3.3125-0.96875 5.1719-0.125 0.25-0.125 0.54688 0.015625 0.78125s0.42188 0.375 0.6875 0.375c1.4688-0.015625 4.375-1.0625 5.3438-4.7656l1.0938 0.09375c0.28125 1.0469 0.76562 3.5625-0.64062 4.5156-0.26562 0.1875-0.39062 0.54688-0.29688 0.85938 0.09375 0.32812 0.39062 0.5625 0.71875 0.5625 3.2891 0.21875 8.707-6.9141 3.9688-11.719zm-13.188-7.1562c-0.55469 0.66406-1.543 0.75391-2.2031 0.20312l-2.8906-2.375c-0.67188-0.5625-0.76562-1.5469-0.21875-2.2031 0.54688-0.67188 1.5312-0.76562 2.2031-0.21875l2.8906 2.3906c0.67188 0.54688 0.76562 1.5312 0.21875 2.2031z"/>
 <path d="m56.312 61.949c-2.7461 0.69922-6.2656-0.11719-8.625-0.95312 0.28125 1.75 0.82812 3.4219 1.5469 5.0625 1.7812 0.29688 3.9375 0.48438 5.8281 0.40625 1.3594-0.0625 2.5781-0.25 3.4375-0.625-1.1641-1.3984-1.7148-2.4375-2.1875-3.8906z"/>
 <path d="m69.188 87.48c-3.0469 0.55078-7.125 0.25391-9.6719-0.3125 0.53516 2.6211 0.53516 5.4922 0.015625 8.2344h12.547c0.67969-2.8711 0.71875-5.8984 0.14062-8.6719-1 0.34375-2.0156 0.57812-3.0312 0.75z"/>
 <path d="m37.75 35.074c0.39062 0.35938 0.5625 0.875 0.53125 1.5469-0.007812 0.59375-1.0859 1.3164-1.7344 1.625 1.5977 1.1172 3.7617 2.6719 5.0469 3.6562 3.1914-3.2695 6.3359-4.9492 10.125-6.0312-6.5898-10.074-14.484-8.8906-19.422-2.3125 0 0 4.7812 0.89062 5.4531 1.5156z"/>
 <path d="m24.203 50.559c2.5938 1.2188 1.2812 7.4844 0.21875 10.453 1.375-1.6562 2.8438-3.0156 4.2344-4.0781 3.9141-2.8945 6.0234-3.6289 6.8438-3.7656 1-3.6406 2.4531-6.5312 4.1094-8.8594-1.0742-0.79688-4.2383-3.0195-6.25-4.4023-1.0742-0.73828-2.3828-1.0547-3.6719-0.84766-6.0547 0.98438-14.828 4.0312-18.844 13.277-0.28125 0.65625 10.156-3.2969 13.359-1.7812z"/>
 <path d="m36.703 69.637c-0.1875 0.0625-2.6719 0.96875-4.25 4.9219-0.625 1.6523-1.0234 3.3242-1.2031 5.7656 1.125-0.90625 2.4844-1.5781 3.8594-1.375 0.5625 0.078125 1.2188 0.3125 1.8594 0.875 0 0 2.3438-4.7344 2.5625-4.875-1.0547-1.668-1.9805-3.582-2.8281-5.3125z"/>
 <path d="m35.641 66.699c-0.9375-3.0469-1.3438-6.3438-0.89062-9.9531-5.25 2.2305-11.512 8.8477-12.781 16.203-0.375 1.6719-0.60938 3.5156-0.64062 5.5156 1.7188-2.3906 4.7656-5.4844 6.5469-5.3438 0.5 0.046875 0.95312 0.4375 1.3594 1.1719 0.42188-1.2344 0.92188-2.2656 1.4531-3.1406 1.9375-3.1875 4.3281-4.2344 4.9531-4.4531z"/>
 <path d="m54.969 47.527c-4.4805 0.69531-7.5547 4.7812-7.5 10.047 2.0117 0.82812 5.7383 1.957 8.2031 1.3281-0.03125-0.92188 0.15625-1.5781 0.39062-2.0156-0.46875-1.2344-0.76562-2.3906-0.96875-3.4688-0.4375-2.4375-0.34375-4.4688-0.125-5.8906z"/>
 <path d="m50.938 69.449c1.0156 1.8008 2.1406 3.6641 3.25 5.4688 2.625 0.3125 5.8281 0.26562 7.875-0.32812 1.6523-0.44922 1.8359-0.96875 2.375-2.0469-1.3047-1.5352-2.5742-2.8867-3.8438-4.3125-2.7422 1.6367-6.5938 1.4961-9.6562 1.2188z"/>
 <path d="m68.328 84.449c1.0312-0.14062 2.0625-0.375 3.0781-0.71875-1.1094-3.1562-2.875-5.9844-4.8281-8.5312-1.918 2.7148-5.8203 3.0039-8.9531 3.0625-0.53125 0-1.0625-0.015625-1.5469-0.03125 0.96875 1.7812 1.8438 3.6094 2.5 5.5312 1.5938 0.40625 5.5938 1.2812 9.75 0.6875z"/>
 <path d="m55.812 85.277c-3.0469-9.2031-11.34-16.469-11.484-26.703-0.29297-6.9883 3.3516-12.605 9.3438-13.969 0 0-0.59375-0.60938-0.59375-0.60938-0.63672-0.625-0.5625-1.7812 0.15625-2.3125 0.015625-0.015625 1.6719-1.375 2.0469-3.375-3.7656 0.39062-13.359 2.7656-16.875 16.109-2.5625 9.7344 2.3594 16.969 7.125 23.969 3.125 4.6094 3.6094 9.0156 4.375 13.891 0.15625 1.0156 0.21875 2.0625 0.17188 3.125h6.2656c0.77734-3.4102 0.49609-6.9414-0.53125-10.125z"/>
<text x="0.0" y="117.5" font-size="5.0" font-weight="bold" font-family="Arbeit Regular, Helvetica, Arial-Unicode, Arial, Sans-serif" fill="#000000">Created by sentya irma</text><text x="0.0" y="122.5" font-size="5.0" font-weight="bold" font-family="Arbeit Regular, Helvetica, Arial-Unicode, Arial, Sans-serif" fill="#000000">from Noun Project</text></svg>