<svg xmlns="http://www.w3.org/2000/svg" version="1.1" viewBox="-5.0 -10.0 110.0 135.0">
 <g>
  <path d="m40.707 81.738c0.050781-0.046875 0.082031-0.11719 0.082031-0.1875 0-0.074219-0.03125-0.14062-0.082031-0.19141-1.4766-1.2539-2.4219-3.0195-2.6523-4.9453-0.30469-3.9375 3.4336-7.4258 6.7891-10.555 0.31641-0.29688 1.1758-0.95312 2.3398-1.9961 1.418-1.2734 2.7734-2.6836 3.5-3.4375 4.5703-4.3047 6.6953-10.395 4.9258-15.871-1.3398-4.1445-4.7812-11.719-6.3203-13.648-0.5-0.625-0.62891-1.4297 0.09375-1.7734l0.023438-0.011718 0.011719-0.003906v0.003906c0.74609-0.34375 1.5586-0.52734 2.3828-0.53516h1.8438c0.19141-0.003907 0.375 0.082031 0.5 0.23047 0.042969 0.058594 0.074219 0.125 0.089844 0.19531 0.023437 0.10156 0.10547 0.17578 0.20703 0.19531 0.10156 0.015625 0.20312-0.027343 0.26172-0.11328l0.007813-0.011719-0.003907 0.003907c0.09375-0.15625 0.14453-0.33203 0.14844-0.51172 0.003906-0.089844 0.050781-0.17188 0.125-0.21875s0.16797-0.050781 0.25-0.011719c0.16406 0.082031 0.29688 0.21094 0.38281 0.375 0.050781 0.089844 0.14844 0.14453 0.25 0.13672 0.10547-0.003907 0.19531-0.074219 0.23047-0.17188 0.11719-0.35156 0.17188-0.72266 0.16406-1.0938-0.019531-0.61328-0.21484-1.207-0.55859-1.7109-0.050781-0.070312-0.12891-0.11328-0.21484-0.11719-0.082031 0-0.16406 0.039062-0.21484 0.10938-0.375 0.51953-0.91406 0.89844-1.5312 1.0742-0.41016 0.10938-0.83984 0.125-1.2578 0.042969-0.074219-0.011719-0.13672-0.058593-0.17578-0.125-0.039063-0.0625-0.046876-0.14062-0.023438-0.21484 0.078125-0.23047 0.054688-0.48438-0.0625-0.69531-0.042969-0.070313-0.11328-0.11719-0.19141-0.125-0.082032-0.011719-0.16016 0.015625-0.21875 0.074219-0.64062 0.65625-1.4648 1.1094-2.3633 1.3008-0.48828 0.097656-0.99219 0.11719-1.4883 0.050781-0.097656-0.011718-0.17969-0.082031-0.21094-0.17578s-0.007813-0.19922 0.0625-0.26953c1.2461-1.2461 2.043-1.7617 2.3906-1.5469 0.10156 0.074219 0.16797 0.1875 0.17969 0.3125 0.019532 0.089843 0.085938 0.16016 0.17188 0.19141 0.085938 0.027344 0.17969 0.007813 0.25-0.050781 1.9805-1.6523 3.7227-2.3594 4.4609-1.7852 0.22266 0.19531 0.36328 0.46875 0.38672 0.76562 0.011718 0.082032 0.0625 0.15234 0.13672 0.19141 0.070313 0.039062 0.15625 0.042969 0.23047 0.007812 0.58984-0.25 1.0508-0.73047 1.2773-1.3281 0.14844-0.4375 0.15625-0.91016 0.023437-1.3516-0.015625-0.050782-0.015625-0.10156 0-0.15234 0.23438-0.71484 0.63672-1.3633 1.1719-1.8867 0.074219-0.074219 0.097657-0.18359 0.0625-0.28125-0.039062-0.09375-0.12891-0.16016-0.23438-0.16797-0.86719-0.046874-1.7227 0.23438-2.3984 0.78125-0.042969 0.039063-0.10156 0.058594-0.16016 0.058594l-3.6133 0.039063v-0.003907c-0.09375 0.003907-0.17969-0.046874-0.22656-0.12891-0.125-0.21484-0.3125-0.39062-0.53516-0.5-0.48047-0.14453-1-0.10938-1.4531 0.10547-0.65234 0.19531-0.64453 0.39062-1.2266 0.45703v0.003906c-0.72266 0.054688-1.4531 0.066407-2.1797 0.027344-0.085938-0.003906-0.16797-0.058594-0.20703-0.13672-0.20703-0.40234-0.48828-0.75781-0.82812-1.0547-0.46484-0.36328-1-0.625-1.5742-0.76562-1.0469-0.45312-1.918-1.2266-2.4961-2.207-0.0625-0.09375-0.18359-0.13672-0.28906-0.10547-0.10938 0.035156-0.1875 0.13281-0.1875 0.24609-0.003906 0.20312-0.039062 0.40234-0.10938 0.58984-0.09375 0.24609-0.23438 0.46875-0.42188 0.65625-0.054687 0.054688-0.082031 0.12891-0.074218 0.20703 0.003906 0.078125 0.046874 0.14844 0.10937 0.19531 0.30078 0.21484 0.49609 0.54688 0.54297 0.91406 0.042969 0.36719-0.0625 0.73828-0.30078 1.0234-0.058594 0.066406-0.078125 0.16016-0.050781 0.24609 0.027343 0.085938 0.09375 0.15234 0.17969 0.17578 0.4375 0.082031 0.80469 0.375 0.98438 0.78125 0.066407 0.26953 0.050781 0.55469-0.054687 0.8125-0.16406 0.61719-0.57422 1.1445-1.1289 1.457-0.55469 0.26953-0.80078 0.027344-1.3711 0.23047h-0.003906c-0.31641 0.11719-0.59375 0.3125-0.81641 0.56641-0.070312 0.082031-0.082031 0.19922-0.03125 0.29687 0.050781 0.09375 0.15625 0.14844 0.26172 0.13672 0.26172-0.046875 0.53125-0.003906 0.76953 0.12109 0.34375 0.23438 0.57812 0.59766 0.64453 1.0078 0.21875 0.71875 0.09375 1.5-0.34375 2.1133-0.29297 0.375-0.49219 0.32422-0.76562 0.70703v-0.003906c-0.12891 0.17969-0.22266 0.37891-0.28125 0.58984-0.03125 0.10547 0.007812 0.21875 0.097656 0.28516 0.085937 0.0625 0.20703 0.066406 0.29688 0.007812 0.12891-0.078125 0.28125-0.11719 0.42969-0.10938 0.37109 0.03125 0.60156 0.38672 0.72266 0.57031 0.23828 0.36719 0.16797 0.57031 0.36328 1.1523 0.19922 0.59766 0.35547 0.62891 0.46875 1.0117 0.19531 0.64844-0.14062 1.0078-0.23438 1.7266v-0.003907c-0.066407 0.34375-0.089844 0.69141-0.078125 1.0391 0.007812 0.11719 0.09375 0.21094 0.20703 0.23828 0.11328 0.023438 0.22656-0.027344 0.28516-0.12891 0.089844-0.16406 0.20703-0.30859 0.34766-0.42969 0.31641-0.29297 0.76562-0.38281 1.1719-0.24219 0.15625 0.074219 0.28516 0.19922 0.375 0.34766 1.9375 2.9766 2.9453 6.4609 2.8828 10.012 0 0.13281-0.10156 0.24219-0.23047 0.25781-1.9023 0.29297-3.8477-0.13672-5.4453-1.2031-0.39062-0.28906-1.3555-1.0742-2.8516-4.3945-1.7617-3.9023-1.4141-5.0078-2.3398-6.4453-1.8477-2.8789-6.4688-2.0586-10.383-3.3086-5.0625-1.6172-15.059-4.0938-22.469 0.49219l-0.003906-0.003907c-0.097657 0.0625-0.14453 0.18359-0.11328 0.29688 0.035156 0.11328 0.13672 0.19141 0.25781 0.1875 5.2266 0.078125 9.75 3.6562 11.031 8.7227 1.0469 3.9922-0.11328 8.2422-3.0508 11.145-0.085938 0.085937-0.10156 0.22266-0.035157 0.32812 0.066407 0.10156 0.19531 0.14453 0.30859 0.10547 4.4766-1.6641 9.5078-0.61328 12.945 2.6992 2.4844 2.6328 3.707 6.2148 3.3516 9.8164-0.007812 0.12109 0.066407 0.23438 0.18359 0.26953 0.11719 0.039062 0.24219-0.011719 0.30469-0.11719 1-1.8047 2.5078-3.2773 4.332-4.2344 1.9961-0.89062 4.207-1.1953 6.3711-0.88672 0.10156 0.011719 0.19141 0.082032 0.21875 0.18359 0.03125 0.097656 0 0.20703-0.078126 0.27344-1.7617 1.5234-7.0938 6.7734-6.9414 14.719v0.003906c0.11328 3.8008 1.3906 7.4766 3.668 10.52 0.058594 0.082031 0.16016 0.12109 0.26172 0.10547 1.1641-0.19531 2.293-0.56641 3.3477-1.0938 0.74609-0.42188 1.4375-0.94141 2.0508-1.543z"/>
  <path d="m17.176 79.48c-0.44531-4.1055 1.3438-8.1367 4.6836-10.566-0.066406 1.1992-0.003906 2.4062 0.19531 3.5938 0.33203 1.9922 1.0273 3.9062 2.0508 5.6484-0.85938-0.84375-2.0547-1.2461-3.25-1.0938 0.48047 0.98438 1.0742 1.9023 1.7734 2.7422 2.8047 3.3555 8.0117 6.2148 13.344 5.0547 2.6875-0.53125 5.0781-2.0469 6.7031-4.25 0.84766-1.2812 0.80078-1.9961 1.3711-3.6094 0.46094-1.3125 3.0234-8.0352 8.3867-9.3711 3-0.75 6.1719 0.10938 8.3867 2.2695 3.582 3.8789 1.75 11.164-1.8828 15.062-3.9414 4.2266-10.805 5.3242-17.074 2.5898v-0.003906c2.1875-0.77734 3.9805-2.375 5.0078-4.457 2.7227 0.24609 5.4375-0.58594 7.5586-2.3086 0.61719-0.54688 3.4102-3.0117 2.5977-5.3633-0.59375-1.7109-2.9336-2.8867-4.3633-2.3125h-0.003906c-0.82031 0.33594-1.5039 0.94141-1.9375 1.7109 0 0-1.3477 2.3516-4.6484 8.3867-2.5391 4.6367-9.4258 4.6836-10.414 4.7383-6.3984 0.33594-12.766-3.8984-16.203-10.641-1 0.42578-1.8086 1.2031-2.2812 2.1797z"/>
  <path d="m51.961 59.07c2.2188-1.9609 3.7578-4.5781 4.3945-7.4727 0.49219-2.3281 0.37109-4.7461-0.34375-7.0156 1.2734-0.09375 2.4844-0.57422 3.4805-1.3711 0.94531-0.79297 1.4688-1.7852 2.2812-4.1641 1.1055-3.2344 1.2852-4.7461 1.5977-5.5898 0.82812-2.2539 3.4297-2.7148 15.52-4.7344 8.7227-1.457 12.191-1.9805 16.145-0.058594 0.99609 0.48438 1.9336 1.0781 2.7969 1.7695-1.2266-0.58203-2.5859-0.82031-3.9375-0.6875-4.3398 0.50781-7.0586 5.25-7.875 8.5-1.7617 7.0312 3.9766 12.773 4.3359 13.121l0.003906 0.003906c-4.0977-2.4648-9.2734-2.2227-13.125 0.60547-3.8555 2.832-5.6289 7.6992-4.5039 12.344-1.1758-2.2773-2.9531-4.1914-5.1367-5.5352-7.0156-4.207-15.074-0.015625-15.633 0.28516z"/>
  <path d="m71.723 24.016c-0.83594 0.13672-1.3281 0.24609-1.4141 0.60547-0.035156 0.18359 0.019531 0.375 0.14844 0.51172 0.42578 0.47656 1.5352-0.035156 2.3203-0.22656v0.003906c1.4727-0.28516 2.9961-0.019531 4.2891 0.73828-1-0.28125-2.0508-0.3125-3.0664-0.10156-1.2539 0.28125-1.7578 0.83594-2.9961 0.98438-0.84766 0.089844-1.7031-0.027344-2.4961-0.33984 0.47656 0.066406 0.92969-0.21484 1.082-0.67188 0.011718-0.28906-0.13672-0.5625-0.38281-0.71484-0.54688-0.36328-1.4492 0.21094-1.7969 0.39844-0.90234 0.48828-2.418 0.88672-5.0938 0.39844-0.6875 0.078126-0.82422 0.33594-0.85547 0.41406-0.1875 0.46484 0.55469 1.2266 1.2852 1.5547 0.83594 0.375 1.9023 0.28516 1.9961-0.027343 0.042968-0.14062-0.089844-0.39062-0.88281-0.88281 0.37891-0.14062 0.77734-0.23828 1.1836-0.28516 1.7148-0.19922 2.5898 0.96094 4.1094 1.1992h-0.003906c1.125 0.13281 2.2617-0.13281 3.2109-0.75781-0.48438 0.69922-1.1953 1.207-2.0117 1.4414-1.0273 0.26172-2.1211 0.082032-3.0117-0.5-0.125-0.097656-0.28906-0.13672-0.44922-0.097656-0.15625 0.035156-0.28906 0.14062-0.36328 0.28516-0.13281 0.26563-0.070313 0.58984 0.16016 0.78125 0.34766 0.29297 0.82812 0.070313 1.2969 0.23047 0.34375 0.13281 0.62891 0.37891 0.8125 0.69922-0.48828-0.125-0.98438-0.21094-1.4844-0.25781-0.98047-0.023438-1.9648 0.035156-2.9375 0.17187-1.9805-0.074218-2.2969-2.2148-4.8359-3.3945-1.1602-0.51953-2.4375-0.73047-3.707-0.61328 1.0039-1.1914 2.3398-2.0586 3.8359-2.4883 1.5547-0.55859 3.2031-0.80469 4.8516-0.72266 0.20703 0.035157 0.41406-0.070312 0.51172-0.25391 0.082031-0.20703-0.23438-0.50391-0.41406-0.62891-0.54688-0.28125-1.1953-0.29688-1.7539-0.042969 0.50781-0.32031 1.0742-0.53125 1.668-0.625 1.4805-0.21875 2.9883 0.007813 4.3359 0.65234 0.14453 0.089844 0.29688 0.15625 0.45703 0.20312 0.60938 0.058594 1.2148-0.15625 1.6562-0.58594-0.085937 0.29297-0.25 0.5625-0.47656 0.76953-0.82031 0.58594-1.9141 0.60938-2.7578 0.066406-0.34375-0.24609-0.80859-0.23047-1.1367 0.03125-0.22266 0.21484-0.30469 0.53906-0.21094 0.83203 0.16797 0.46484 0.9375 0.75781 1.8945 0.54688h-0.003906c-0.13281 0.19922-0.30859 0.36719-0.51172 0.49219-0.85547 0.51172-2.1875 0.17969-3.3789-0.78125-0.41406-0.24609-0.91016-0.3125-1.3711-0.17969-0.33594 0.10156-0.95313 0.38281-1.0039 0.83594-0.082031 0.69531 1.4453 1.2461 1.5195 1.2734l-0.003906-0.003906c1.0117 0.29297 2.0898 0.26953 3.082-0.074219 0.34766-0.085937 0.69141-0.19922 1.0195-0.33984 0.90625-0.40234 1.5195-0.73047 1.7305-0.84766 0.62891-0.34375 1.7305-0.54688 3.7969 0.12891-0.47266 0.074219-0.96484 0.12109-1.4414 0.19531z"/>
 </g>
<text x="0.0" y="117.5" font-size="5.0" font-weight="bold" font-family="Arbeit Regular, Helvetica, Arial-Unicode, Arial, Sans-serif" fill="#000000">Created by Leonardo Henrique Martini</text><text x="0.0" y="122.5" font-size="5.0" font-weight="bold" font-family="Arbeit Regular, Helvetica, Arial-Unicode, Arial, Sans-serif" fill="#000000">from Noun Project</text></svg>