<svg xmlns="http://www.w3.org/2000/svg" version="1.1" viewBox="-5.0 -10.0 110.0 135.0">
 <g>
  <path d="m41.516 75.605c-1.5352-1.2383-2.5273-3.0234-2.7656-4.9805-0.29688-3.8203 3.3281-7.1992 6.582-10.234 0.30859-0.28906 1.1406-0.92188 2.2695-1.9375 1.375-1.2344 2.6875-2.6016 3.3945-3.3359 4.4336-4.1758 6.4922-10.082 4.7773-15.387-1.0859-3.1523-3.2578-5.8125-6.1289-7.5078-0.30859-0.1875-0.48828-0.52734-0.46875-0.88672 0.019531-0.35938 0.23438-0.67578 0.55859-0.83203l0.019531-0.011718 0.011719-0.003907c0.72656-0.33203 1.5117-0.50781 2.3125-0.51562h1.7891c0.18359-0.003906 0.36328 0.078125 0.48047 0.22266 0.14844 0.21484 0.13672 0.5-0.023437 0.70313 0.23828-0.074219 0.44141-0.23047 0.57422-0.44531 0.14453-0.24609 0.18359-0.54297 0.10156-0.82031 0.26953 0.007813 0.52344 0.13281 0.69141 0.33984 0.21094 0.27734 0.24609 0.65234 0.09375 0.96484 0.875-1.168 0.80859-2.793-0.15625-3.8906-0.36328 0.64844-0.96094 1.125-1.6719 1.332-0.50781 0.13672-1.043 0.12109-1.5391-0.039062 0.13672-0.19141 0.19531-0.42969 0.15625-0.66406-0.039063-0.19922-0.14453-0.37891-0.30078-0.50781-0.64844 0.74219-1.5156 1.2539-2.4805 1.4609-0.63672 0.12891-1.293 0.11719-1.9258-0.035156 1.4023-1.457 2.2891-2.0703 2.6562-1.8438 0.16016 0.097656 0.22266 0.35938 0.18359 0.78125 2.082-1.8438 3.9609-2.668 4.7266-2.0742 0.28906 0.26953 0.4375 0.66016 0.40234 1.0547 0.71484-0.19922 1.293-0.71875 1.5664-1.4102 0.14844-0.44531 0.14844-0.93359 0-1.3828 0.27734-0.89453 0.82422-1.6836 1.5664-2.2578-1.0469-0.23828-2.1484 0.03125-2.9609 0.73047l-3.7461 0.039063c-0.12109-0.26172-0.32812-0.48047-0.58984-0.61328-0.46484-0.14063-0.96875-0.10156-1.4102 0.10547-0.63281 0.1875-0.625 0.37891-1.1875 0.44531-0.75 0.0625-1.5039 0.066406-2.2578 0.011719-0.20312-0.43359-0.49609-0.82422-0.85938-1.1406-0.45312-0.35156-0.97266-0.60547-1.5273-0.74219-1.8984-0.73828-2.4336-2.4648-3.2227-3.168h-0.003906c0.33984 0.51172 0.42578 1.1523 0.23828 1.7344-0.13281 0.34766-0.36719 0.64844-0.67578 0.86328 0.48047 0.18359 0.80469 0.62891 0.83203 1.1406 0.03125 0.51172-0.24609 0.99219-0.69922 1.2266 0.61719-0.039062 1.1992 0.29297 1.4805 0.84375 0.066406 0.26172 0.046875 0.53906-0.050781 0.78906-0.16016 0.59766-0.55859 1.1055-1.0977 1.4102-0.53906 0.26172-0.77734 0.027343-1.332 0.22656-0.54688 0.23047-0.98828 0.66016-1.2344 1.2031 0.42578-0.26562 0.94922-0.3125 1.4102-0.11719 0.33594 0.22656 0.5625 0.57812 0.62891 0.97656 0.21094 0.69922 0.089844 1.4531-0.33203 2.0469-0.28516 0.36328-0.47656 0.3125-0.74219 0.68359l-0.003906 0.003906c-0.26953 0.40625-0.39453 0.89453-0.35156 1.3828 0.14062-0.36719 0.48828-0.61719 0.87891-0.63672 0.35938 0.027344 0.58203 0.375 0.69922 0.55469 0.23047 0.35547 0.16406 0.55078 0.35156 1.1172 0.19141 0.57812 0.34375 0.60938 0.45703 0.98047 0.19141 0.62891-0.13672 0.97656-0.22656 1.6758v-0.003906c-0.070313 0.66016 0.046875 1.3281 0.34766 1.9219-0.078125-0.44922 0.066406-0.90625 0.39062-1.2266 0.30469-0.28125 0.74219-0.37109 1.1328-0.23438 0.15234 0.074219 0.28125 0.19141 0.36719 0.33594 0.52734 0.78516 1.1797 1.4727 1.9336 2.0391 0.51953 0.44141 0.75 0.67969 0.85938 2.168l-0.003906-0.003906c-1.9102 0.33984-3.8789-0.066407-5.5-1.1367-0.37891-0.27734-1.3125-1.043-2.7656-4.2617-1.707-3.7852-1.3711-4.8555-2.2695-6.25-1.793-2.793-6.2734-1.9961-10.07-3.207-5.0898-1.625-15.324-4.1484-22.57 0.99609 5.6328-0.53906 10.203 3.3828 11.617 8.4102l0.003906-0.003906c1.1367 4.3984-0.46875 9.0508-4.082 11.812 4.6055-2.3633 10.203-1.5469 13.941 2.0312 4.457 4.4609 3.1211 10.762 3.0273 11.16h0.003906c0.88672-2.4023 2.6328-4.3984 4.8945-5.6016 2.6172-1.3555 5.8281-0.91016 6.7617-0.78906-0.84375 0.67188-7.3477 6.0195-7.1797 14.645l0.003906 0.003906c0.10938 3.7383 1.3867 7.3516 3.6523 10.332 1.1797-0.1875 2.3281-0.55469 3.3984-1.0898 0.80078-0.46094 1.5391-1.0234 2.1875-1.6758z"/>
  <path d="m18.5 73.598c-0.42969-3.9844 1.3047-7.8906 4.543-10.246-0.0625 1.1641 0 2.332 0.1875 3.4844 0.32422 1.9297 1 3.7891 1.9922 5.4766-0.83203-0.82031-1.9961-1.207-3.1523-1.0586 0.46484 0.95312 1.043 1.8438 1.7227 2.6562 2.7227 3.2539 7.7656 6.0273 12.938 4.9023 2.6055-0.51562 4.9219-1.9844 6.5-4.1211 0.82031-1.2422 0.77734-1.9375 1.3281-3.5 0.44922-1.2734 2.9336-7.7891 8.1328-9.0859 2.9062-0.72656 5.9844 0.10547 8.1289 2.1992 3.4766 3.7617 1.6953 10.828-1.8242 14.605-3.8203 4.0977-10.477 5.1641-16.555 2.5117v-0.003906c2.1211-0.75 3.8594-2.3008 4.8555-4.3203 2.6406 0.23828 5.2695-0.56641 7.3281-2.2383 0.59766-0.52734 3.3086-2.9219 2.5156-5.1992-0.57422-1.6602-2.8438-2.8008-4.2305-2.2383v-0.003906c-0.79297 0.32422-1.457 0.91016-1.8789 1.6602 0 0-1.3086 2.2812-4.5078 8.1328-2.4609 4.4922-9.1367 4.543-10.098 4.5898-6.207 0.32422-12.375-3.7812-15.711-10.316-0.96875 0.41406-1.7578 1.1641-2.2148 2.1172z"/>
  <path d="m52.234 53.809c2.1484-1.9062 3.6406-4.4414 4.2578-7.25 0.47656-2.2578 0.36328-4.6016-0.33203-6.8047 1.2344-0.089844 2.4102-0.55078 3.375-1.3242 0.91797-0.76953 1.4219-1.7305 2.2148-4.0391 1.0742-3.1367 1.2461-4.6016 1.5508-5.4219 0.80469-2.1836 3.3242-2.6328 15.047-4.5898 8.457-1.4141 11.82-1.918 15.656-0.054687l-0.003906-0.003907c0.96484 0.46875 1.875 1.0469 2.7109 1.7148-1.1875-0.5625-2.5078-0.79297-3.8164-0.66406-4.2109 0.49219-6.8477 5.0898-7.6328 8.2422-1.707 6.8203 3.8555 12.387 4.2031 12.727-3.9727-2.3906-8.9922-2.1562-12.727 0.58594-3.7383 2.7461-5.4609 7.4648-4.3672 11.973-1.1406-2.2109-2.8633-4.0664-4.9805-5.3672-6.8008-4.082-14.613-0.015625-15.156 0.27734z"/>
 </g>
<text x="0.0" y="117.5" font-size="5.0" font-weight="bold" font-family="Arbeit Regular, Helvetica, Arial-Unicode, Arial, Sans-serif" fill="#000000">Created by Leonardo Henrique Martini</text><text x="0.0" y="122.5" font-size="5.0" font-weight="bold" font-family="Arbeit Regular, Helvetica, Arial-Unicode, Arial, Sans-serif" fill="#000000">from Noun Project</text></svg>